<svg width="350" height="37" viewBox="0 0 350 37" fill="none" xmlns="http://www.w3.org/2000/svg">
<circle cx="174.168" cy="18.5" r="18.5" fill="#54410C"/>
<path d="M172.603 18.9186H168.103L162.603 12.9186L163.103 7.91864L172.603 18.9186ZM172.603 18.9186L183.103 29.9186M164.836 30.7379L178.138 16.154M178.138 16.154L176.998 12.4486L179.183 10.4534M178.138 16.154L181.701 16.7715L183.648 14.8713M179.183 10.4534L182.413 7.12808M179.183 10.4534L180.64 11.8947M183.648 14.8713L182.144 13.383M183.648 14.8713L186.974 11.641M180.64 11.8947L183.981 8.60075M180.64 11.8947L182.144 13.383M182.144 13.383L185.596 10.0734" stroke="white" stroke-linejoin="round"/>
<line y1="12.4673" x2="149" y2="12.4673" stroke="#403F3E"/>
<line x1="201" y1="12.4673" x2="350" y2="12.4673" stroke="#403F3E"/>
<line y1="18.4673" x2="149" y2="18.4673" stroke="#403F3E"/>
<line x1="201" y1="18.4673" x2="350" y2="18.4673" stroke="#403F3E"/>
<line y1="24.4673" x2="149" y2="24.4673" stroke="#403F3E"/>
<line x1="201" y1="24.4673" x2="350" y2="24.4673" stroke="#403F3E"/>
</svg>
